<svg xmlns="http://www.w3.org/2000/svg" viewBox="0 0 64 64"><defs><linearGradient id="main" x1="0" y1="0" x2=".8" y2="1"><stop stop-color="#cdb48a"/><stop offset="1" stop-color="#6f6953"/></linearGradient><linearGradient id="light" x2="1" y2="1"><stop stop-color="#cdb48a"/><stop offset="1" stop-color="#6f6953"/></linearGradient></defs><ellipse cx="32" cy="57" rx="24" ry="4" fill="#080c09" opacity=".23"/><g stroke="#3a3a2b" stroke-width="1" stroke-linejoin="round" stroke-linecap="round"><path d="M5 13q14-5 26 2 14-7 28-2v39q-17-5-28 3-14-8-26-3Z" fill="#725e43"/><path d="M8 9q12-3 23 4 13-7 25-4v38q-15-4-25 4-13-7-23-4Z" fill="url(#main)"/><path d="M31 13v37m-18-32 13 3m-13 5 13 3m-13 5 13 3m11-16 13-3m-13 11 13-3m-13 11 13-3" stroke="#8b785b" fill="none"/><path d="m42 10 5-2v19l-3-3-2 4Z" fill="#9e7258"/></g></svg>