
<svg xmlns="http://www.w3.org/2000/svg" width="480" height="320" viewBox="0 0 480 320" fill="none">
  <defs>
    <linearGradient id="bg" x1="0" y1="0" x2="1" y2="1">
      <stop offset="0%" stop-color="#3A4160"/>
      <stop offset="100%" stop-color="#242A40"/>
    </linearGradient>
    <linearGradient id="glass" x1="0" y1="0" x2="1" y2="1">
      <stop offset="0%" stop-color="rgba(255,255,255,0.18)"/>
      <stop offset="100%" stop-color="rgba(255,255,255,0.04)"/>
    </linearGradient>
    <filter id="blur"><feGaussianBlur stdDeviation="20"/></filter>
  </defs>
  <rect width="480" height="320" rx="34" fill="url(#bg)"/>
  <circle cx="92" cy="72" r="88" fill="#32B4EA" fill-opacity="0.13" filter="url(#blur)"/>
  <circle cx="414" cy="252" r="84" fill="#32B4EA" fill-opacity="0.12" filter="url(#blur)"/>
  <rect x="18" y="18" width="444" height="284" rx="28" fill="rgba(255,255,255,0.02)" stroke="rgba(255,255,255,0.08)"/>
  <rect x="34" y="32" width="120" height="24" rx="12" fill="rgba(255,255,255,0.09)"/>
  <text x="48" y="49" fill="#F8FAFC" font-size="14" font-family="Inter,Arial,sans-serif" font-weight="800">Daily Close</text>

  <rect x="34" y="74" width="250" height="196" rx="22" fill="rgba(255,255,255,0.06)" stroke="rgba(255,255,255,0.08)"/>
  <rect x="300" y="74" width="146" height="196" rx="22" fill="rgba(255,255,255,0.06)" stroke="rgba(255,255,255,0.08)"/>
  <g fill="rgba(255,255,255,0.1)">
    <rect x="54" y="96" width="210" height="26" rx="13"/>
    <rect x="54" y="132" width="210" height="26" rx="13"/>
    <rect x="54" y="168" width="210" height="26" rx="13"/>
    <rect x="54" y="204" width="210" height="26" rx="13"/>
  </g>
  <rect x="54" y="168" width="210" height="26" rx="13" fill="#32B4EA" fill-opacity="0.46"/>
  <rect x="322" y="98" width="102" height="62" rx="18" fill="rgba(255,255,255,0.10)"/>
  <rect x="322" y="176" width="102" height="62" rx="18" fill="#32B4EA" fill-opacity="0.2" stroke="rgba(255,255,255,0.12)"/>
  <text x="338" y="134" fill="#F8FAFC" font-size="30" font-family="Inter,Arial,sans-serif" font-weight="800">€842</text>
</svg>