<svg xmlns="http://www.w3.org/2000/svg" width="220" height="56" viewBox="0 0 220 56" fill="none"><path d="M34.2 8 18 33.4c-1.8 2.8.2 6.6 3.6 6.6h7.8c1.4 0 2.8-.7 3.6-1.9L49.2 12.7C51 9.9 49 6 45.6 6h-7.8c-1.4 0-2.8.7-3.6 2Z" fill="#3ECF8E"/><path d="M31.2 16.2 15 41.6c-1.8 2.8.2 6.6 3.6 6.6h7.8c1.4 0 2.8-.7 3.6-1.9L46.2 20.9c1.8-2.8-.2-6.7-3.6-6.7h-7.8c-1.4 0-2.8.8-3.6 2Z" fill="#fff" fill-opacity=".92"/><text x="64" y="37" fill="#fff" font-size="24" font-family="Inter,Arial,sans-serif" font-weight="900">Supabase</text></svg>